<?xml version="1.0" encoding="iso-8859-1"?>
<!-- Generator: Adobe Illustrator 16.0.0, SVG Export Plug-In . SVG Version: 6.00 Build 0)  -->
<!DOCTYPE svg PUBLIC "-//W3C//DTD SVG 1.1//EN" "http://www.w3.org/Graphics/SVG/1.1/DTD/svg11.dtd">
<svg version="1.1" id="Capa_1" xmlns="http://www.w3.org/2000/svg" xmlns:xlink="http://www.w3.org/1999/xlink" x="0px" y="0px"
	 width="931.301px" height="931.301px" viewBox="0 0 931.301 931.301" style="enable-background:new 0 0 931.301 931.301;"
	 xml:space="preserve">
<g>
	<g>
		<path d="M868.051,304.2H682.35c18.5-5.4,33.201-12.2,44.301-20.5c33.799-25,55.699-61.7,61.9-103.3
			c6.199-41.6-4.201-83-29.201-116.8c-14.9-20.1-34.5-36.5-56.799-47.4C681.051,5.6,656.949,0,632.85,0c-33.9,0-66.299,10.7-93.6,31
			c-21.9,16.2-42.801,47.9-63.301,96h-26.2c-20.5-48.2-41.399-79.8-63.3-96c-27.3-20.3-59.7-31-93.6-31c-24,0-48.1,5.6-69.7,16.2
			c-22.3,11-41.9,27.4-56.8,47.4c-25,33.8-35.4,75.2-29.2,116.8s28.2,78.2,61.9,103.3c11.1,8.2,25.8,15,44.3,20.5H63.25
			c-24.9,0-45,20.1-45,45v241h419.9V320.8c10.7-0.3,41.6-0.1,55,0.1v269.401h419.9V349.3C913.051,324.4,892.85,304.2,868.051,304.2z
			 M307.15,250.7c-47.4-6-64.3-15.4-69.3-19.2c-19.8-14.7-32.7-36.2-36.3-60.6s2.5-48.7,17.2-68.5c17.6-23.7,44.7-37.3,74.2-37.3
			c19.9,0,38.9,6.3,54.9,18.2c13.8,10.2,31.399,41.4,48.899,85.7c-6.399,11.4-10,24.5-10,38.4c0,18.4,6.301,35.3,16.9,48.7
			C367.15,256,333.95,254.1,307.15,250.7z M527.75,256.1c10.5-13.4,16.801-30.3,16.801-48.7c0-16.3-4.9-31.4-13.301-43.9
			c16.699-41.4,33.5-70.4,46.699-80.2c16-11.9,35-18.2,54.9-18.2c29.6,0,56.701,13.6,74.201,37.3
			c14.699,19.8,20.799,44.1,17.199,68.5s-16.5,45.9-36.301,60.6c-5.1,3.8-22,13.2-69.299,19.2
			C593.25,254,561.949,255.8,527.75,256.1z"/>
		<path d="M493.15,931.301h374.9c24.898,0,45-20.102,45-45v-241h-419.9V931.301z"/>
		<path d="M18.25,886.301c0,24.898,20.1,45,45,45h374.9v-286H18.25V886.301z"/>
	</g>
</g>
<g>
</g>
<g>
</g>
<g>
</g>
<g>
</g>
<g>
</g>
<g>
</g>
<g>
</g>
<g>
</g>
<g>
</g>
<g>
</g>
<g>
</g>
<g>
</g>
<g>
</g>
<g>
</g>
<g>
</g>
</svg>
